{
    "asset" : {
        "generator" : "Khronos glTF Blender I/O v1.4.40",
        "version" : "2.0"
    },
    "scene" : 0,
    "scenes" : [
        {
            "name" : "Scene",
            "nodes" : [
                0,
                1
            ]
        }
    ],
    "nodes" : [
        {
            "name" : "Light",
            "rotation" : [
                0.16907575726509094,
                0.7558803558349609,
                -0.27217137813568115,
                0.570947527885437
            ],
            "translation" : [
                4.076245307922363,
                5.903861999511719,
                -1.0054539442062378
            ]
        },
        {
            "mesh" : 0,
            "name" : "Cube"
        }
    ],
    "meshes" : [
        {
            "name" : "Cube.001",
            "primitives" : [
                {
                    "attributes" : {
                        "POSITION" : 0,
                        "NORMAL" : 1,
                        "TEXCOORD_0" : 2
                    },
                    "indices" : 3
                }
            ]
        }
    ],
    "accessors" : [
        {
            "bufferView" : 0,
            "componentType" : 5126,
            "count" : 3878,
            "max" : [
                0.8185898661613464,
                0.43858712911605835,
                0.8194566965103149
            ],
            "min" : [
                -0.9358327984809875,
                -0.5614128708839417,
                -0.9248452186584473
            ],
            "type" : "VEC3"
        },
        {
            "bufferView" : 1,
            "componentType" : 5126,
            "count" : 3878,
            "type" : "VEC3"
        },
        {
            "bufferView" : 2,
            "componentType" : 5126,
            "count" : 3878,
            "type" : "VEC2"
        },
        {
            "bufferView" : 3,
            "componentType" : 5123,
            "count" : 20988,
            "type" : "SCALAR"
        }
    ],
    "bufferViews" : [
        {
            "buffer" : 0,
            "byteLength" : 46536,
            "byteOffset" : 0
        },
        {
            "buffer" : 0,
            "byteLength" : 46536,
            "byteOffset" : 46536
        },
        {
            "buffer" : 0,
            "byteLength" : 31024,
            "byteOffset" : 93072
        },
        {
            "buffer" : 0,
            "byteLength" : 41976,
            "byteOffset" : 124096
        }
    ],
    "buffers" : [
        {
            "byteLength" : 166072,
            "uri" : "axis.bin"
        }
    ]
}
