{
	"asset":{
		"generator":"Khronos glTF Blender I/O v3.6.27",
		"version":"2.0"
	},
	"scene":0,
	"scenes":[
		{
			"name":"Scene",
			"nodes":[
				0
			]
		}
	],
	"nodes":[
		{
			"mesh":0,
			"name":"Icosphere"
		}
	],
	"meshes":[
		{
			"name":"Icosphere",
			"primitives":[
				{
					"attributes":{
						"POSITION":0,
						"NORMAL":1,
						"TEXCOORD_0":2
					},
					"indices":3
				}
			]
		}
	],
	"accessors":[
		{
			"bufferView":0,
			"componentType":5126,
			"count":41665,
			"max":[
				1,
				1,
				0.9999999403953552
			],
			"min":[
				-1,
				-1,
				-0.9999999403953552
			],
			"type":"VEC3"
		},
		{
			"bufferView":1,
			"componentType":5126,
			"count":41665,
			"type":"VEC3"
		},
		{
			"bufferView":2,
			"componentType":5126,
			"count":41665,
			"type":"VEC2"
		},
		{
			"bufferView":3,
			"componentType":5123,
			"count":245760,
			"type":"SCALAR"
		}
	],
	"bufferViews":[
		{
			"buffer":0,
			"byteLength":499980,
			"byteOffset":0,
			"target":34962
		},
		{
			"buffer":0,
			"byteLength":499980,
			"byteOffset":499980,
			"target":34962
		},
		{
			"buffer":0,
			"byteLength":333320,
			"byteOffset":999960,
			"target":34962
		},
		{
			"buffer":0,
			"byteLength":491520,
			"byteOffset":1333280,
			"target":34963
		}
	],
	"buffers":[
		{
			"byteLength":1824800,
			"uri":"sphere_hd.bin"
		}
	]
}
