{
    "asset" : {
        "generator" : "Khronos glTF Blender I/O v1.4.40",
        "version" : "2.0"
    },
    "scene" : 0,
    "scenes" : [
        {
            "name" : "Scene",
            "nodes" : [
                0
            ]
        }
    ],
    "nodes" : [
        {
            "mesh" : 0,
            "name" : "Text",
            "rotation" : [
                0.7071068286895752,
                0,
                0,
                0.7071068286895752
            ]
        }
    ],
    "meshes" : [
        {
            "name" : "Text",
            "primitives" : [
                {
                    "attributes" : {
                        "POSITION" : 0,
                        "NORMAL" : 1,
                        "TEXCOORD_0" : 2
                    },
                    "indices" : 3
                }
            ]
        }
    ],
    "accessors" : [
        {
            "bufferView" : 0,
            "componentType" : 5126,
            "count" : 6620,
            "max" : [
                0.615882158279419,
                0.20000000298023224,
                0.2516085207462311
            ],
            "min" : [
                -0.615882158279419,
                -0.20000000298023224,
                -0.2516085207462311
            ],
            "type" : "VEC3"
        },
        {
            "bufferView" : 1,
            "componentType" : 5126,
            "count" : 6620,
            "type" : "VEC3"
        },
        {
            "bufferView" : 2,
            "componentType" : 5126,
            "count" : 6620,
            "type" : "VEC2"
        },
        {
            "bufferView" : 3,
            "componentType" : 5123,
            "count" : 11676,
            "type" : "SCALAR"
        }
    ],
    "bufferViews" : [
        {
            "buffer" : 0,
            "byteLength" : 79440,
            "byteOffset" : 0
        },
        {
            "buffer" : 0,
            "byteLength" : 79440,
            "byteOffset" : 79440
        },
        {
            "buffer" : 0,
            "byteLength" : 52960,
            "byteOffset" : 158880
        },
        {
            "buffer" : 0,
            "byteLength" : 23352,
            "byteOffset" : 211840
        }
    ],
    "buffers" : [
        {
            "byteLength" : 235192,
            "uri" : "undefined.bin"
        }
    ]
}
