# Blender v2.91.0 OBJ File: ''
# www.blender.org
mtllib 3d_arrow.mtl
o Cylinder
v 0.000000 0.050000 -1.000000
v 0.000000 0.050000 0.500000
v 0.019134 0.046194 -1.000000
v 0.019134 0.046194 0.500000
v 0.035355 0.035355 -1.000000
v 0.035355 0.035355 0.500000
v 0.046194 0.019134 -1.000000
v 0.046194 0.019134 0.500000
v 0.050000 0.000000 -1.000000
v 0.050000 0.000000 0.500000
v 0.046194 -0.019134 -1.000000
v 0.046194 -0.019134 0.500000
v 0.035355 -0.035355 -1.000000
v 0.035355 -0.035355 0.500000
v 0.019134 -0.046194 -1.000000
v 0.019134 -0.046194 0.500000
v 0.000000 -0.050000 -1.000000
v 0.000000 -0.050000 0.500000
v -0.019134 -0.046194 -1.000000
v -0.019134 -0.046194 0.500000
v -0.035355 -0.035355 -1.000000
v -0.035355 -0.035355 0.500000
v -0.046194 -0.019134 -1.000000
v -0.046194 -0.019134 0.500000
v -0.050000 0.000000 -1.000000
v -0.050000 0.000000 0.500000
v -0.046194 0.019134 -1.000000
v -0.046194 0.019134 0.500000
v -0.035355 0.035355 -1.000000
v -0.035355 0.035355 0.500000
v -0.019134 0.046194 -1.000000
v -0.019134 0.046194 0.500000
v 0.057403 0.138582 0.500000
v 0.000000 0.150000 0.500000
v 0.106066 0.106066 0.500000
v 0.138582 0.057403 0.500000
v 0.150000 0.000000 0.500000
v 0.138582 -0.057402 0.500000
v 0.106066 -0.106066 0.500000
v 0.057403 -0.138582 0.500000
v 0.000000 -0.150000 0.500000
v -0.057402 -0.138582 0.500000
v -0.106066 -0.106066 0.500000
v -0.138582 -0.057402 0.500000
v -0.150000 0.000000 0.500000
v -0.138582 0.057403 0.500000
v -0.106066 0.106066 0.500000
v -0.057402 0.138582 0.500000
v 0.000000 -0.000000 1.000000
vt 1.000000 1.000000
vt 0.937500 0.500000
vt 1.000000 0.500000
vt 0.937500 1.000000
vt 0.875000 0.500000
vt 0.875000 1.000000
vt 0.812500 0.500000
vt 0.812500 1.000000
vt 0.750000 0.500000
vt 0.750000 1.000000
vt 0.687500 0.500000
vt 0.687500 1.000000
vt 0.625000 0.500000
vt 0.625000 1.000000
vt 0.562500 0.500000
vt 0.562500 1.000000
vt 0.500000 0.500000
vt 0.500000 1.000000
vt 0.437500 0.500000
vt 0.437500 1.000000
vt 0.375000 0.500000
vt 0.375000 1.000000
vt 0.312500 0.500000
vt 0.312500 1.000000
vt 0.250000 0.500000
vt 0.250000 1.000000
vt 0.187500 0.500000
vt 0.187500 1.000000
vt 0.125000 0.500000
vt 0.500000 1.000000
vt 0.437500 1.000000
vt 0.125000 1.000000
vt 0.062500 0.500000
vt 0.062500 1.000000
vt 0.000000 0.500000
vt 0.841844 0.028269
vt 0.528269 0.158156
vt 0.658156 0.471731
vt 0.250000 1.000000
vt 0.187500 1.000000
vt 0.750000 1.000000
vt 0.812500 1.000000
vt 0.000000 1.000000
vt 0.000000 1.000000
vt 0.562500 1.000000
vt 0.062500 1.000000
vt 0.000000 1.000000
vt 0.750000 1.000000
vt 0.437500 1.000000
vt 0.125000 1.000000
vt 0.125000 1.000000
vt 0.875000 1.000000
vt 0.937500 1.000000
vt 0.875000 1.000000
vt 0.625000 1.000000
vt 0.562500 1.000000
vt 0.312500 1.000000
vt 0.250000 1.000000
vt 0.687500 1.000000
vt 0.687500 1.000000
vt 0.375000 1.000000
vt 0.375000 1.000000
vt 0.062500 1.000000
vt 0.812500 1.000000
vt 0.500000 1.000000
vt 0.187500 1.000000
vt 1.000000 1.000000
vt 0.937500 1.000000
vt 0.625000 1.000000
vt 0.312500 1.000000
vt 0.750000 0.490000
vt 0.841844 0.471731
vt 0.919706 0.419706
vt 0.971731 0.341844
vt 0.990000 0.250000
vt 0.971731 0.158156
vt 0.919706 0.080294
vt 0.750000 0.010000
vt 0.658156 0.028269
vt 0.580294 0.080294
vt 0.510000 0.250000
vt 0.528269 0.341844
vt 0.580294 0.419706
vn -0.0000 1.0000 0.0000
vn 0.3827 0.9239 0.0000
vn 0.7071 0.7071 0.0000
vn 0.9239 0.3827 0.0000
vn 1.0000 -0.0000 -0.0000
vn 0.9239 -0.3827 -0.0000
vn 0.7071 -0.7071 0.0000
vn 0.3827 -0.9239 0.0000
vn -0.0000 -1.0000 0.0000
vn -0.3827 -0.9239 0.0000
vn -0.7071 -0.7071 0.0000
vn -0.9239 -0.3827 0.0000
vn -1.0000 0.0000 0.0000
vn -0.9239 0.3827 0.0000
vn -0.7071 0.7071 0.0000
vn 0.0000 0.0000 -1.0000
vn -0.3827 0.9239 0.0000
vn -0.0000 0.9578 0.2873
vn -0.3665 0.8849 0.2873
vn 0.0000 -0.0000 1.0000
vn 0.9578 0.0000 0.2873
vn 0.8849 0.3665 0.2873
vn -0.3665 -0.8849 0.2873
vn 0.0000 -0.9578 0.2873
vn -0.6773 0.6773 0.2873
vn -0.8849 0.3665 0.2873
vn 0.6773 0.6773 0.2873
vn 0.3665 0.8849 0.2873
vn 0.3665 -0.8849 0.2873
vn 0.6773 -0.6773 0.2873
vn -0.9578 0.0000 0.2873
vn -0.8849 -0.3665 0.2873
vn 0.8849 -0.3665 0.2873
vn -0.6773 -0.6773 0.2873
usemtl None
s 1
f 2/1/1 3/2/2 1/3/1
f 4/4/2 5/5/3 3/2/2
f 6/6/3 7/7/4 5/5/3
f 8/8/4 9/9/5 7/7/4
f 10/10/5 11/11/6 9/9/5
f 12/12/6 13/13/7 11/11/6
f 14/14/7 15/15/8 13/13/7
f 16/16/8 17/17/9 15/15/8
f 18/18/9 19/19/10 17/17/9
f 20/20/10 21/21/11 19/19/10
f 22/22/11 23/23/12 21/21/11
f 24/24/12 25/25/13 23/23/12
f 26/26/13 27/27/14 25/25/13
f 28/28/14 29/29/15 27/27/14
f 20/20/16 41/30/16 42/31/16
f 30/32/15 31/33/17 29/29/15
f 32/34/17 1/35/1 31/33/17
f 15/36/16 23/37/16 31/38/16
f 28/28/16 45/39/16 46/40/16
f 8/8/16 37/41/16 10/10/16
f 16/16/16 41/30/16 18/18/16
f 24/24/16 45/39/16 26/26/16
f 6/6/16 36/42/16 8/8/16
f 32/34/16 34/43/16 2/44/16
f 14/14/16 40/45/16 16/16/16
f 34/43/18 48/46/19 49/47/20
f 37/41/21 36/42/22 49/48/20
f 42/31/23 41/30/24 49/49/20
f 47/50/25 46/40/26 49/51/20
f 35/52/27 33/53/28 49/54/20
f 40/45/29 39/55/30 49/56/20
f 45/39/31 44/57/32 49/58/20
f 38/59/33 37/41/21 49/60/20
f 43/61/34 42/31/23 49/62/20
f 48/46/19 47/50/25 49/63/20
f 36/42/22 35/52/27 49/64/20
f 41/30/24 40/45/29 49/65/20
f 46/40/26 45/39/31 49/66/20
f 33/53/28 34/67/18 49/68/20
f 39/55/30 38/59/33 49/69/20
f 44/57/32 43/61/34 49/70/20
f 10/10/16 38/59/16 12/12/16
f 28/28/16 47/50/16 30/32/16
f 4/4/16 34/67/16 33/53/16
f 22/22/16 42/31/16 43/61/16
f 12/12/16 39/55/16 14/14/16
f 32/34/16 47/50/16 48/46/16
f 4/4/16 35/52/16 6/6/16
f 24/24/16 43/61/16 44/57/16
f 2/1/1 4/4/2 3/2/2
f 4/4/2 6/6/3 5/5/3
f 6/6/3 8/8/4 7/7/4
f 8/8/4 10/10/5 9/9/5
f 10/10/5 12/12/6 11/11/6
f 12/12/6 14/14/7 13/13/7
f 14/14/7 16/16/8 15/15/8
f 16/16/8 18/18/9 17/17/9
f 18/18/9 20/20/10 19/19/10
f 20/20/10 22/22/11 21/21/11
f 22/22/11 24/24/12 23/23/12
f 24/24/12 26/26/13 25/25/13
f 26/26/13 28/28/14 27/27/14
f 28/28/14 30/32/15 29/29/15
f 20/20/16 18/18/16 41/30/16
f 30/32/15 32/34/17 31/33/17
f 32/34/17 2/44/1 1/35/1
f 31/38/16 1/71/16 3/72/16
f 3/72/16 5/73/16 31/38/16
f 5/73/16 7/74/16 31/38/16
f 7/74/16 9/75/16 15/36/16
f 9/75/16 11/76/16 15/36/16
f 11/76/16 13/77/16 15/36/16
f 15/36/16 17/78/16 23/37/16
f 17/78/16 19/79/16 23/37/16
f 19/79/16 21/80/16 23/37/16
f 23/37/16 25/81/16 31/38/16
f 25/81/16 27/82/16 31/38/16
f 27/82/16 29/83/16 31/38/16
f 31/38/16 7/74/16 15/36/16
f 28/28/16 26/26/16 45/39/16
f 8/8/16 36/42/16 37/41/16
f 16/16/16 40/45/16 41/30/16
f 24/24/16 44/57/16 45/39/16
f 6/6/16 35/52/16 36/42/16
f 32/34/16 48/46/16 34/43/16
f 14/14/16 39/55/16 40/45/16
f 10/10/16 37/41/16 38/59/16
f 28/28/16 46/40/16 47/50/16
f 4/4/16 2/1/16 34/67/16
f 22/22/16 20/20/16 42/31/16
f 12/12/16 38/59/16 39/55/16
f 32/34/16 30/32/16 47/50/16
f 4/4/16 33/53/16 35/52/16
f 24/24/16 22/22/16 43/61/16
