# Blender v2.91.0 OBJ File: ''
# www.blender.org
mtllib camera.mtl
o Cube_Cube.002
v -1.593464 -0.500000 0.500000
v -1.593464 0.500000 0.500000
v -1.593464 -0.500000 -0.500000
v -1.593464 0.500000 -0.500000
v 0.906536 -0.500000 0.500000
v 0.906536 0.500000 0.500000
v 0.906536 -0.500000 -0.500000
v 0.906536 0.500000 -0.500000
v 0.906536 0.690954 -0.690954
v 0.906536 -0.690954 -0.690954
v 0.906536 -0.690954 0.690954
v 0.906536 0.690954 0.690954
v 2.098250 0.000000 0.000000
vt 0.625000 0.000000
vt 0.375000 0.250000
vt 0.375000 0.000000
vt 0.625000 0.250000
vt 0.375000 0.500000
vt 0.625000 0.750000
vt 0.625000 0.500000
vt 0.625000 0.500000
vt 0.375000 1.000000
vt 0.375000 0.750000
vt 0.125000 0.750000
vt 0.125000 0.500000
vt 0.875000 0.500000
vt 0.375000 0.750000
vt 0.375000 0.500000
vt 0.375000 0.750000
vt 0.625000 0.750000
vt 0.625000 0.500000
vt 0.375000 0.500000
vt 0.625000 0.750000
vt 0.625000 1.000000
vt 0.875000 0.750000
vn -1.0000 0.0000 0.0000
vn 0.0000 0.0000 -1.0000
vn 0.0000 0.0000 1.0000
vn 0.0000 -1.0000 0.0000
vn 0.0000 1.0000 0.0000
vn 0.5016 -0.8651 0.0000
vn 0.5016 0.8651 0.0000
vn 0.5016 0.0000 -0.8651
vn 0.5016 0.0000 0.8651
usemtl None
s off
f 2/1/1 3/2/1 1/3/1
f 4/4/2 7/5/2 3/2/2
f 6/6/1 9/7/1 8/8/1
f 6/6/3 1/9/3 5/10/3
f 7/5/4 1/11/4 3/12/4
f 4/13/5 6/6/5 8/8/5
f 7/5/1 11/14/1 5/10/1
f 11/14/6 10/15/6 13/16/6
f 9/7/7 12/17/7 13/18/7
f 10/15/8 9/7/8 13/19/8
f 12/17/9 11/14/9 13/20/9
f 8/8/1 10/15/1 7/5/1
f 5/10/1 12/17/1 6/6/1
f 2/1/1 4/4/1 3/2/1
f 4/4/2 8/8/2 7/5/2
f 6/6/1 12/17/1 9/7/1
f 6/6/3 2/21/3 1/9/3
f 7/5/4 5/10/4 1/11/4
f 4/13/5 2/22/5 6/6/5
f 7/5/1 10/15/1 11/14/1
f 8/8/1 9/7/1 10/15/1
f 5/10/1 11/14/1 12/17/1
