# Blender v2.91.0 OBJ File: ''
# www.blender.org
mtllib weird_box.mtl
o Cube_Cube.001
v -0.250000 0.000000 0.250000
v -0.250000 3.250000 0.250000
v -0.250000 0.000000 -0.250000
v -0.250000 3.250000 -0.250000
v 0.250000 0.000000 0.250000
v 0.250000 3.250000 0.250000
v 0.250000 0.000000 -0.250000
v 0.250000 3.250000 -0.250000
v -0.292616 2.381669 0.292616
v -0.292616 2.493331 0.292616
v 0.292616 2.493331 0.292616
v 0.292616 2.381669 0.292616
v -0.292616 1.569169 0.292616
v -0.292616 1.680831 0.292616
v 0.292616 1.680831 0.292616
v 0.292616 1.569169 0.292616
v -0.292616 0.756669 0.292616
v -0.292616 0.868331 0.292616
v 0.292616 0.868331 0.292616
v 0.292616 0.756669 0.292616
v -0.250000 0.868331 0.250000
v -0.250000 0.756669 0.250000
v -0.250000 1.680831 0.250000
v -0.250000 1.569169 0.250000
v -0.250000 2.493331 0.250000
v -0.250000 2.381669 0.250000
v -0.250000 2.381669 -0.250000
v -0.250000 2.493331 -0.250000
v -0.250000 1.569169 -0.250000
v -0.250000 1.680831 -0.250000
v -0.250000 0.756669 -0.250000
v -0.250000 0.868331 -0.250000
v 0.250000 2.381669 -0.250000
v 0.250000 2.493331 -0.250000
v 0.250000 1.569169 -0.250000
v 0.250000 1.680831 -0.250000
v 0.250000 0.756669 -0.250000
v 0.250000 0.868331 -0.250000
v 0.250000 2.381669 0.250000
v 0.250000 2.493331 0.250000
v 0.250000 1.569169 0.250000
v 0.250000 1.680831 0.250000
v 0.250000 0.756669 0.250000
v 0.250000 0.868331 0.250000
v 0.292616 0.756669 -0.292616
v 0.292616 0.868331 -0.292616
v 0.292616 1.569169 -0.292616
v 0.292616 1.680831 -0.292616
v 0.292616 2.381669 -0.292616
v 0.292616 2.493331 -0.292616
v -0.292616 0.756669 -0.292616
v -0.292616 0.868331 -0.292616
v -0.292616 1.569169 -0.292616
v -0.292616 1.680831 -0.292616
v -0.292616 2.381669 -0.292616
v -0.292616 2.493331 -0.292616
vt 0.127279 0.254365
vt 0.319603 0.127279
vt 0.319603 0.254365
vt 0.996436 0.254365
vt 0.818302 0.381451
vt 0.818302 0.254365
vt 0.996436 0.381451
vt 0.818302 0.508537
vt 0.127279 0.381451
vt 0.319603 0.381451
vt 0.319988 0.254365
vt 0.447074 0.127279
vt 0.447074 0.254365
vt 0.000193 0.381451
vt 0.000193 0.254365
vt 0.639784 0.381451
vt 0.817917 0.254365
vt 0.817917 0.381451
vt 0.996436 0.127279
vt 0.818302 0.127279
vt 0.127279 0.508537
vt 0.319603 0.508537
vt 0.746073 0.792788
vt 0.990792 0.746096
vt 0.990792 0.792788
vt 0.639398 0.381451
vt 0.447074 0.508537
vt 0.447074 0.381451
vt 0.639784 0.127279
vt 0.817917 0.000193
vt 0.817917 0.127279
vt 0.127279 0.127279
vt 0.319603 0.000193
vt 0.639398 0.254365
vt 0.639784 0.254365
vt 0.639398 0.000193
vt 0.447074 0.000193
vt 0.639784 0.508537
vt 0.817917 0.508537
vt 0.996436 0.000193
vt 0.818302 0.000193
vt 0.030927 0.666041
vt 0.257186 0.648272
vt 0.239416 0.666042
vt 0.763893 0.810608
vt 0.972971 0.810608
vt 0.483533 0.728275
vt 0.256634 0.746095
vt 0.274454 0.728275
vt 0.519173 0.810608
vt 0.728252 0.810608
vt 0.274454 0.810608
vt 0.501353 0.792788
vt 0.483533 0.810608
vt 0.971500 0.583941
vt 0.745242 0.601710
vt 0.763012 0.583941
vt 0.483926 0.861466
vt 0.258123 0.879200
vt 0.275857 0.861466
vt 0.238813 0.728275
vt 0.011914 0.746095
vt 0.029734 0.728275
vt 0.275857 0.943401
vt 0.501660 0.925667
vt 0.483926 0.943401
vt 0.029734 0.810608
vt 0.256634 0.792788
vt 0.238813 0.810608
vt 0.727464 0.861466
vt 0.501660 0.879200
vt 0.519395 0.861466
vt 0.240389 0.861466
vt 0.014585 0.879200
vt 0.032319 0.861465
vt 0.639398 0.127279
vt 0.745242 0.648271
vt 0.989270 0.601710
vt 0.989270 0.648271
vt 0.745198 0.925667
vt 0.988734 0.879200
vt 0.988735 0.925666
vt 0.011914 0.792788
vt 0.013157 0.648271
vt 0.257186 0.601711
vt 0.014585 0.925667
vt 0.258123 0.925667
vt 0.501353 0.746095
vt 0.501214 0.601711
vt 0.501214 0.648271
vt 0.746073 0.746095
vt 0.745198 0.879200
vt 0.728252 0.728275
vt 0.519174 0.728275
vt 0.762932 0.943401
vt 0.971000 0.943401
vt 0.239416 0.583941
vt 0.013157 0.601711
vt 0.030927 0.583941
vt 0.518984 0.666041
vt 0.727472 0.666041
vt 0.274956 0.666041
vt 0.483444 0.666041
vt 0.972972 0.728275
vt 0.763893 0.728275
vt 0.727472 0.583941
vt 0.518984 0.583941
vt 0.971000 0.861466
vt 0.762932 0.861465
vt 0.483444 0.583941
vt 0.274956 0.583941
vt 0.032319 0.943401
vt 0.240389 0.943401
vt 0.519395 0.943401
vt 0.727463 0.943401
vt 0.763012 0.666041
vt 0.971500 0.666041
vt 0.996436 0.508537
vt 0.319988 0.127279
vt 0.639398 0.508537
vt 0.639784 0.000193
vt 0.127279 0.000193
vn 0.0000 0.0000 -1.0000
vn 1.0000 0.0000 0.0000
vn -1.0000 0.0000 0.0000
vn 0.0000 -1.0000 0.0000
vn 0.0000 1.0000 0.0000
vn 0.0000 0.0000 1.0000
usemtl None
s off
f 4/1/1 34/2/1 28/3/1
f 27/4/1 36/5/1 30/6/1
f 33/7/2 42/8/2 36/5/2
f 2/9/3 28/3/3 25/10/3
f 7/11/4 1/12/4 3/13/4
f 4/1/5 6/14/5 8/15/5
f 24/16/3 32/17/3 21/18/3
f 26/19/3 30/6/3 23/20/3
f 6/21/6 25/10/6 40/22/6
f 18/23/6 20/24/6 19/25/6
f 37/26/2 5/27/2 7/28/2
f 35/29/2 44/30/2 38/31/2
f 8/32/2 40/33/2 34/2/2
f 31/34/1 7/28/1 3/13/1
f 29/35/1 38/31/1 32/17/1
f 43/36/6 1/12/6 5/37/6
f 41/38/6 21/18/6 44/39/6
f 39/40/6 23/20/6 42/41/6
f 42/42/5 48/43/5 36/44/5
f 21/45/5 19/25/5 44/46/5
f 31/47/4 45/48/4 37/49/4
f 32/50/5 18/23/5 21/51/5
f 38/52/5 52/53/5 32/54/5
f 41/55/4 13/56/4 24/57/4
f 27/58/4 49/59/4 33/60/4
f 37/61/4 20/62/4 43/63/4
f 34/64/5 56/65/5 28/66/5
f 44/67/5 46/68/5 38/69/5
f 26/70/4 55/71/4 27/72/4
f 33/73/4 12/74/4 39/75/4
f 22/76/3 3/13/3 1/12/3
f 14/77/6 16/78/6 15/79/6
f 10/80/6 12/81/6 11/82/6
f 19/83/2 45/48/2 46/68/2
f 15/84/2 47/85/2 48/43/2
f 11/86/2 49/59/2 50/87/2
f 46/68/1 51/88/1 52/53/1
f 48/43/1 53/89/1 54/90/1
f 50/87/1 55/71/1 56/65/1
f 52/53/3 17/91/3 18/23/3
f 54/90/3 13/56/3 14/77/3
f 56/65/3 9/92/3 10/80/3
f 22/93/4 51/88/4 31/94/4
f 25/95/5 11/82/5 40/96/5
f 35/97/4 16/98/4 41/99/4
f 30/100/5 14/77/5 23/101/5
f 36/102/5 54/90/5 30/103/5
f 43/104/4 17/91/4 22/105/4
f 24/106/4 53/89/4 29/107/4
f 39/108/4 9/92/4 26/109/4
f 29/110/4 47/85/4 35/111/4
f 40/112/5 50/87/5 34/113/5
f 28/114/5 10/80/5 25/115/5
f 23/116/5 15/79/5 42/117/5
f 4/1/1 8/32/1 34/2/1
f 27/4/1 33/7/1 36/5/1
f 33/7/2 39/118/2 42/8/2
f 2/9/3 4/1/3 28/3/3
f 7/11/4 5/119/4 1/12/4
f 4/1/5 2/9/5 6/14/5
f 24/16/3 29/35/3 32/17/3
f 26/19/3 27/4/3 30/6/3
f 6/21/6 2/9/6 25/10/6
f 18/23/6 17/91/6 20/24/6
f 37/26/2 43/120/2 5/27/2
f 35/29/2 41/121/2 44/30/2
f 8/32/2 6/122/2 40/33/2
f 31/34/1 37/26/1 7/28/1
f 29/35/1 35/29/1 38/31/1
f 43/36/6 22/76/6 1/12/6
f 41/38/6 24/16/6 21/18/6
f 39/40/6 26/19/6 23/20/6
f 42/42/5 15/84/5 48/43/5
f 21/45/5 18/23/5 19/25/5
f 31/47/4 51/88/4 45/48/4
f 32/50/5 52/53/5 18/23/5
f 38/52/5 46/68/5 52/53/5
f 41/55/4 16/78/4 13/56/4
f 27/58/4 55/71/4 49/59/4
f 37/61/4 45/48/4 20/62/4
f 34/64/5 50/87/5 56/65/5
f 44/67/5 19/83/5 46/68/5
f 26/70/4 9/92/4 55/71/4
f 33/73/4 49/59/4 12/74/4
f 22/76/3 31/34/3 3/13/3
f 14/77/6 13/56/6 16/78/6
f 10/80/6 9/92/6 12/81/6
f 19/83/2 20/62/2 45/48/2
f 15/84/2 16/98/2 47/85/2
f 11/86/2 12/74/2 49/59/2
f 46/68/1 45/48/1 51/88/1
f 48/43/1 47/85/1 53/89/1
f 50/87/1 49/59/1 55/71/1
f 52/53/3 51/88/3 17/91/3
f 54/90/3 53/89/3 13/56/3
f 56/65/3 55/71/3 9/92/3
f 22/93/4 17/91/4 51/88/4
f 25/95/5 10/80/5 11/82/5
f 35/97/4 47/85/4 16/98/4
f 30/100/5 54/90/5 14/77/5
f 36/102/5 48/43/5 54/90/5
f 43/104/4 20/24/4 17/91/4
f 24/106/4 13/56/4 53/89/4
f 39/108/4 12/81/4 9/92/4
f 29/110/4 53/89/4 47/85/4
f 40/112/5 11/86/5 50/87/5
f 28/114/5 56/65/5 10/80/5
f 23/116/5 14/77/5 15/79/5
